:SAMPLES-PER-SECOND 30
:FRAME-RANGE 1-564
:FULLY-SPECIFIED
:DEGREES
177
root  27.3074 39.8475 82.2273 -177.009 -67.4661 178.601
RightUpLeg  -7.79596 -11.8187 2.50286
RightLeg  17.6315 -9.79732 -3.59659
RightFoot  -9.97541 -0.0650816 -0.208219
RightToes  1.21801e-010 1.2921e-014 -6.02303e-014
Spine  -6.56244 2.96539 5.15584
Spine1  8.36945 4.37628 -6.59315
HEad  25.4885 -5.93767 3.12115
LeftShoulder1  0.718324 -0.0351319 -14.8847
LeftArm  6.21298 10.3811 -31.566
LeftForeArm  3.44414 -71.341 -37.4333
LeftHand  -0.0380449 5.58562 -2.72571
RightShoulder  1.9253 4.44724 18.3812
RightArm  11.2248 21.7183 49.593
RightForeArm  -1.94785 56.9717 17.7554
RightHand  -0.0792186 -12.0968 0.211719
LeftUpLeg  -8.11865 -6.48973 -1.42731
LeftLeg  12.0542 -13.4948 0.238585
LeftFoot  -6.47098 0.0317632 0.168572
LeftToes  1.70735e-010 3.74918e-011 3.68705e-011
178
root  27.2885 39.7207 82.1177 -176.829 -65.4027 177.868
RightUpLeg  -9.73322 -10.5665 2.0892
RightLeg  22.5182 -8.28343 -3.9663
RightFoot  -10.6686 -0.0768604 0.77934
RightToes  1.21801e-010 1.2921e-014 -6.02303e-014
Spine  -6.18503 2.75764 4.38304
Spine1  8.22968 4.14322 -6.62596
HEad  25.5708 -8.52358 3.12821
LeftShoulder1  0.672467 0.260051 -15.5165
LeftArm  6.12747 12.2054 -32.0466
LeftForeArm  7.54469 -72.4829 -40.3215
LeftHand  -0.0379601 5.65693 -2.0874
RightShoulder  1.87744 4.15008 18.752
RightArm  11.0071 21.0468 48.9346
RightForeArm  -0.752047 57.3398 17.9217
RightHand  -0.0955211 -11.5386 0.582472
LeftUpLeg  -8.05588 -5.35944 -1.50467
LeftLeg  13.6105 -12.3357 -0.168289
LeftFoot  -7.66477 0.036209 0.307857
LeftToes  1.70735e-010 3.74918e-011 3.68705e-011
179
root  27.3 39.6067 82.0189 -177.46 -63.4093 178.178
RightUpLeg  -12.174 -10.3274 1.98635
RightLeg  27.7588 -5.626 -3.42857
RightFoot  -10.4964 -0.0828681 1.58816
RightToes  1.21801e-010 1.2921e-014 -6.02303e-014
Spine  -5.56159 2.3274 3.82468
Spine1  7.65023 3.575 -6.37179
HEad  25.9211 -10.8024 3.12068
LeftShoulder1  0.613381 0.586322 -16.0357
LeftArm  5.56105 14.1146 -33.0409
LeftForeArm  10.0367 -72.8563 -41.1669
LeftHand  -0.0196937 4.91485 -2.29085
RightShoulder  1.86403 4.02217 19.027
RightArm  11.0423 20.2035 48.2507
RightForeArm  -0.0412823 57.3908 17.8962
RightHand  -0.108927 -10.9271 0.983672
LeftUpLeg  -8.17139 -4.398 -1.05504
LeftLeg  15.1055 -11.3542 -0.588692
LeftFoot  -8.91237 0.0514636 0.0986494
LeftToes  1.70735e-010 3.74918e-011 3.68705e-011
180
root  27.2872 39.4863 81.8931 -177.583 -60.8489 178.012
RightUpLeg  -14.9218 -10.4685 1.44305
RightLeg  33.2538 -2.0422 -1.68296
RightFoot  -9.72906 -0.105301 2.79072
RightToes  1.21801e-010 1.2921e-014 -6.02303e-014
Spine  -5.20006 2.02339 3.02001
Spine1  7.42685 3.17989 -6.25966
HEad  26.055 -12.7491 3.22832
LeftShoulder1  0.590284 0.744838 -16.5739
LeftArm  5.70702 15.6747 -33.1747
LeftForeArm  12.6037 -73.5257 -43.245
LeftHand  -0.0294575 5.96883 0.501714
RightShoulder  1.82754 3.82463 19.2312
RightArm  11.0448 19.0207 47.7609
RightForeArm  0.918887 57.6362 17.9936
RightHand  -0.0918402 -10.3826 0.776213
LeftUpLeg  -8.11861 -2.96642 -0.895437
LeftLeg  16.3414 -10.2392 -0.692078
LeftFoot  -10.1008 0.059825 0.0778587
LeftToes  1.70735e-010 3.74918e-011 3.68705e-011
181
root  27.2527 39.3645 81.7054 -177.536 -57.9781 177.634
RightUpLeg  -17.5286 -10.0062 0.138959
RightLeg  38.7766 2.40182 1.80569
RightFoot  -9.21972 -0.197347 7.26012
RightToes  1.21801e-010 1.2921e-014 -6.02303e-014
Spine  -5.06016 1.82726 2.04629
Spine1  7.48106 2.88786 -6.10888
HEad  25.9251 -14.1772 3.27808
LeftShoulder1  0.659795 0.466719 -16.7816
LeftArm  5.92212 17.3599 -33.4236
LeftForeArm  16.2315 -74.1915 -45.3583
LeftHand  -0.0430533 5.7836 -2.54716
RightShoulder  1.80312 3.69693 19.3561
RightArm  10.8592 17.5549 46.91
RightForeArm  1.44906 57.9906 18.2154
RightHand  -0.082518 -10.1439 0.627654
LeftUpLeg  -7.8022 -1.03918 -0.711426
LeftLeg  17.3571 -9.36176 -0.889238
LeftFoot  -11.3475 0.0681332 0.0809219
LeftToes  1.70735e-010 3.74918e-011 3.68705e-011
182
root  27.2385 39.2127 81.4961 -177.35 -56.0906 177.274
RightUpLeg  -19.5464 -10.2509 -1.38839
RightLeg  42.5207 5.53103 5.13443
RightFoot  -10.5041 -0.150698 10.7988
RightToes  1.21801e-010 1.2921e-014 -6.02303e-014
Spine  -4.75859 1.07764 0.716967
Spine1  7.12498 1.93148 -5.63903
HEad  25.9919 -15.0753 2.92498
LeftShoulder1  0.723429 0.215173 -16.9644
LeftArm  6.50617 18.5244 -33.676
LeftForeArm  17.8406 -74.4576 -46.2518
LeftHand  -0.0504153 5.965 -2.92527
RightShoulder  1.77586 3.53942 19.5621
RightArm  10.6566 16.0626 46.0923
RightForeArm  2.09418 57.9959 18.1597
RightHand  -0.0758699 -9.57228 0.61939
LeftUpLeg  -8.00077 0.0947797 -0.538958
LeftLeg  18.8729 -8.67641 -1.14939
LeftFoot  -12.6324 0.0766089 0.0702496
LeftToes  1.70735e-010 3.74918e-011 3.68705e-011
183
root  27.1967 39.1375 81.1912 -177.356 -53.3328 177.188
RightUpLeg  -21.048 -9.62499 -2.80629
RightLeg  44.1114 5.77005 5.67843
RightFoot  -12.701 0.0358757 10.2841
RightToes  1.21801e-010 1.2921e-014 -6.02303e-014
Spine  -4.89217 0.791788 -0.109147
Spine1  7.26118 1.51934 -5.33772
HEad  25.6633 -15.3799 2.50498
LeftShoulder1  0.775202 0.0326696 -17.2654
LeftArm  7.29616 18.5837 -33.9869
LeftForeArm  16.7805 -74.1397 -44.9745
LeftHand  -0.0529737 6.06481 -2.89207
RightShoulder  1.72305 3.24935 19.9237
RightArm  10.377 14.4986 45.2069
RightForeArm  2.70012 57.8729 18.0092
RightHand  -0.0771585 -9.00974 0.847358
LeftUpLeg  -7.44536 1.99635 -0.0895583
LeftLeg  19.2479 -7.9341 -1.21687
LeftFoot  -13.5708 0.0760895 -0.27415
LeftToes  1.70735e-010 3.74918e-011 3.68705e-011
184
root  27.1367 39.1101 80.8391 -177.387 -50.563 177.331
RightUpLeg  -22.2021 -9.23231 -4.21279
RightLeg  43.3313 3.97945 3.73121
RightFoot  -13.4565 0.0663611 8.53607
RightToes  1.21801e-010 1.2921e-014 -6.02303e-014
Spine  -5.18179 0.486816 -0.503418
Spine1  7.37486 1.13999 -5.09351
HEad  25.1071 -15.1816 2.33256
LeftShoulder1  0.840211 -0.212067 -17.4837
LeftArm  7.98034 18.2262 -34.4358
LeftForeArm  15.0776 -73.5591 -42.8209
LeftHand  -0.0503864 5.9933 -2.75518
RightShoulder  1.66396 2.96139 20.2006
RightArm  10.0575 12.7826 44.565
RightForeArm  3.24254 57.5905 17.7457
RightHand  -0.069424 -8.56126 0.781268
LeftUpLeg  -6.59348 3.50314 0.52106
LeftLeg  18.9119 -6.88452 -1.06583
LeftFoot  -14.3277 0.0645974 -0.81874
LeftToes  1.70735e-010 3.74918e-011 3.68705e-011
185
root  27.0471 39.1544 80.4844 -177.462 -48.5212 177.483
RightUpLeg  -22.816 -10.0947 -5.9642
RightLeg  40.8934 1.8811 1.47534
RightFoot  -13.0551 0.0116809 6.70281
RightToes  1.21801e-010 1.2921e-014 -6.02303e-014
Spine  -4.7902 -0.115196 -0.601427
Spine1  6.7603 0.431666 -4.56394
HEad  24.4062 -14.6996 2.14333
LeftShoulder1  0.907579 -0.465917 -17.6784
LeftArm  8.49743 17.7309 -35.0973
LeftForeArm  13.5827 -72.8829 -40.5252
LeftHand  -0.0427099 5.75077 -2.79305
RightShoulder  1.62182 2.75582 20.415
RightArm  9.76307 10.7846 43.3216
RightForeArm  3.71893 57.9272 17.9552
RightHand  -0.0671852 -8.42655 0.59628
LeftUpLeg  -5.27861 4.20958 1.0105
LeftLeg  17.672 -5.76449 -0.684385
LeftFoot  -14.538 0.0502572 -1.32337
LeftToes  1.70735e-010 3.74918e-011 3.68705e-011
